<?xml version="1.0" encoding="utf-8"?>
<!-- Generator: Adobe Illustrator 22.0.1, SVG Export Plug-In . SVG Version: 6.00 Build 0)  -->
<svg version="1.1" id="star" xmlns="http://www.w3.org/2000/svg" xmlns:xlink="http://www.w3.org/1999/xlink" x="0px" y="0px"
	 width="500px" height="500px" viewBox="0 0 500 500" style="enable-background:new 0 0 500 500;" xml:space="preserve">
<style type="text/css">
	.st0{fill:#F7A732;}
</style>
<g>
	<path class="st0" d="M497.8,192.6c-2.2-6.8-8.1-11.8-15.2-12.8l-149.1-21.7L266.8,23c-3.2-6.4-9.6-10.5-16.8-10.5v402.7l133.3,70.2
		c2.8,1.4,5.8,2.2,8.7,2.2c3.9,0,7.8-1.2,11.1-3.6c5.8-4.2,8.7-11.3,7.5-18.4l-25.5-148.5L493,211.9
		C498.1,206.9,500,199.4,497.8,192.6z"/>
	<path class="st0" d="M249.9,12.5c-7.2,0-13.7,4.1-16.9,10.5l-66.7,135.1L17.1,179.8c-7.1,1-13,6-15.2,12.8
		c-2.2,6.8-0.4,14.3,4.8,19.3l108,105.1L89.3,465.5c-1.2,7.1,1.7,14.2,7.5,18.4c5.8,4.2,13.5,4.8,19.8,1.4L250,415.2V12.5
		C250,12.5,249.9,12.5,249.9,12.5z"/>
</g>
</svg>
